<svg xmlns="http://www.w3.org/2000/svg" viewBox="0 0 760.22 200"><defs><style>.cls-1{fill:#333c83;}.cls-2{fill:#e80000;}</style></defs><title>Ativo 6</title><g id="Camada_2" data-name="Camada 2"><g id="Camada_2-2" data-name="Camada 2"><path class="cls-1" d="M70.14,82.71H97.87v76.41q0,13.16-6.16,22.25a38.2,38.2,0,0,1-17.17,13.78q-11,4.69-25.58,4.69T23.3,195.14A38,38,0,0,1,6.13,181.36Q0,172.27,0,159.11V82.71H28V158a15.2,15.2,0,0,0,5.82,12.51q5.82,4.66,15.19,4.66t15.33-4.66A15.17,15.17,0,0,0,70.14,158Z"/><path class="cls-1" d="M143,148.89v49.47H115.37V111.62h26.26v15.93h1a24.66,24.66,0,0,1,9.83-12.48A29.39,29.39,0,0,1,169,110.49a30.22,30.22,0,0,1,15.9,4.07A27.76,27.76,0,0,1,195.37,126a36.61,36.61,0,0,1,3.7,17.11v55.29H171.45V148.5q.06-7.23-3.64-11.29t-10.25-4.07A13.87,13.87,0,0,0,147,137.32Q143,141.49,143,148.89Z"/><path class="cls-2" d="M230.07,101.51a14.2,14.2,0,0,1-10-3.87,12.51,12.51,0,0,1,0-18.66,15,15,0,0,1,20,0,12.57,12.57,0,0,1,0,18.66A14.17,14.17,0,0,1,230.07,101.51Zm-13.84,96.85V111.62h27.62v86.74Z"/><path class="cls-1" d="M261,198.36V182.44l56.19-77H261V82.71H352.5V98.63l-56.19,77h56.13v22.7Z"/><path class="cls-1" d="M410.16,200q-20.44,0-32.16-11.92t-11.72-32.75q0-13.44,5.31-23.52a38.55,38.55,0,0,1,15-15.7q9.66-5.62,22.76-5.62a45.26,45.26,0,0,1,21.8,5.11,36.22,36.22,0,0,1,14.85,15q5.36,9.89,5.36,24.17v6.89H393.5v.73q0,8,4.6,12.82t12.57,4.86a18.71,18.71,0,0,0,9.43-2.29,12.23,12.23,0,0,0,5.59-6.58l25.35.73a31.26,31.26,0,0,1-13.1,20.42Q427.21,200,410.16,200ZM393.5,145.62h32.13a14.68,14.68,0,0,0-4.49-10.93,15.6,15.6,0,0,0-11.27-4.26,16.08,16.08,0,0,0-11.49,4.35A15.26,15.26,0,0,0,393.5,145.62Z"/><path class="cls-1" d="M493.12,148.89v49.47H465.5V111.62h26.26v15.93h1a24.66,24.66,0,0,1,9.83-12.48,29.4,29.4,0,0,1,16.55-4.57,30.22,30.22,0,0,1,15.9,4.07A27.75,27.75,0,0,1,545.49,126a36.61,36.61,0,0,1,3.7,17.11v55.29H521.58V148.5q.05-7.23-3.64-11.29t-10.25-4.07a13.87,13.87,0,0,0-10.53,4.18Q493.17,141.49,493.12,148.89Z"/><path class="cls-1" d="M580.2,101.51a14.2,14.2,0,0,1-10-3.87,12.51,12.51,0,0,1,0-18.66,15,15,0,0,1,20,0,12.57,12.57,0,0,1,0,18.66A14.18,14.18,0,0,1,580.2,101.51Zm-13.84,96.85V111.62H594v86.74Z"/><path class="cls-1" d="M660.44,111.62V132H644.8v39.13q0,3.84,1.83,5.39A7.76,7.76,0,0,0,651.8,178a19.45,19.45,0,0,0,3.36-.31q1.78-.31,2.68-.54L662,197.12q-2,.56-5.53,1.38a51.91,51.91,0,0,1-8.58,1.1q-14.63.68-22.73-5.82t-8-19.65V132H605.72V111.62h11.46V90.84H644.8v20.78Z"/><path class="cls-1" d="M704,148.89v49.47H676.36V82.71h26.71v44.84h1A25.07,25.07,0,0,1,713.66,115q6.69-4.52,16.4-4.52,13.67,0,21.94,8.92t8.22,23.66v55.29H732.61V148.5q.06-7.23-3.61-11.29t-10.33-4.07a14.06,14.06,0,0,0-10.59,4.18Q704,141.49,704,148.89Z"/><polygon class="cls-2" points="380.11 0 387.07 14.1 402.62 16.36 391.37 27.33 394.02 42.82 380.11 35.51 366.2 42.82 368.86 27.33 357.6 16.36 373.15 14.1 380.11 0"/><polygon class="cls-2" points="429.4 20.1 433.61 28.62 443.01 29.99 436.21 36.62 437.81 45.99 429.4 41.57 420.99 45.99 422.6 36.62 415.79 29.99 425.19 28.62 429.4 20.1"/><polygon class="cls-2" points="330.82 20.1 335.03 28.62 344.43 29.99 337.63 36.62 339.23 45.99 330.82 41.57 322.41 45.99 324.02 36.62 317.21 29.99 326.62 28.62 330.82 20.1"/></g></g></svg>