<svg xmlns="http://www.w3.org/2000/svg" viewBox="0 0 470.3 498.34"><defs><style>.cls-1{fill:#333c83;}.cls-2{fill:#e80000;}</style></defs><title>Ativo 4</title><g id="Camada_2" data-name="Camada 2"><g id="Camada_1-2" data-name="Camada 1"><path class="cls-1" d="M43.51,425.82H60.66v47.24a24,24,0,0,1-3.81,13.76,23.62,23.62,0,0,1-10.61,8.52,40.11,40.11,0,0,1-15.82,2.9,40.34,40.34,0,0,1-15.87-2.9,23.49,23.49,0,0,1-10.61-8.52A24,24,0,0,1,.15,473.06V425.82H17.43V472.4a9.39,9.39,0,0,0,3.6,7.73A14.57,14.57,0,0,0,30.42,483a14.75,14.75,0,0,0,9.48-2.88,9.38,9.38,0,0,0,3.61-7.73Z"/><path class="cls-1" d="M88.55,466.74v30.58H71.48V443.7H87.71v9.85h.59a15.25,15.25,0,0,1,6.08-7.72A18.17,18.17,0,0,1,104.61,443a18.68,18.68,0,0,1,9.83,2.51,17.16,17.16,0,0,1,6.49,7.05,22.64,22.64,0,0,1,2.29,10.58v34.18H106.15V466.5a9.88,9.88,0,0,0-2.25-7A8.14,8.14,0,0,0,97.56,457,8.57,8.57,0,0,0,91,459.58,10.07,10.07,0,0,0,88.55,466.74Z"/><path class="cls-2" d="M142.39,437.45a8.78,8.78,0,0,1-6.18-2.39,7.73,7.73,0,0,1,0-11.54,9.25,9.25,0,0,1,12.38,0,7.77,7.77,0,0,1,0,11.54A8.76,8.76,0,0,1,142.39,437.45Zm-8.55,59.88V443.7h17.07v53.63Z"/><path class="cls-1" d="M161.48,497.32v-9.85l34.74-47.62h-34.7v-14h56.56v9.85l-34.74,47.62H218v14Z"/><path class="cls-1" d="M253.72,498.34q-12.64,0-19.88-7.37t-7.24-20.25a30.77,30.77,0,0,1,3.28-14.54,23.83,23.83,0,0,1,9.25-9.71A27.48,27.48,0,0,1,253.2,443a28,28,0,0,1,13.48,3.16,22.39,22.39,0,0,1,9.18,9.27q3.32,6.11,3.32,14.94v4.26H243.42v.45a11,11,0,0,0,2.85,7.93,10.19,10.19,0,0,0,7.77,3,11.57,11.57,0,0,0,5.83-1.41,7.56,7.56,0,0,0,3.46-4.07L279,481a19.33,19.33,0,0,1-8.1,12.62Q264.27,498.34,253.72,498.34Zm-10.3-33.62h19.87a9.08,9.08,0,0,0-2.78-6.76,9.64,9.64,0,0,0-7-2.64,9.94,9.94,0,0,0-7.11,2.69A9.44,9.44,0,0,0,243.42,464.72Z"/><path class="cls-1" d="M305,466.74v30.58H287.94V443.7h16.24v9.85h.59a15.25,15.25,0,0,1,6.07-7.72A18.17,18.17,0,0,1,321.07,443a18.68,18.68,0,0,1,9.83,2.51,17.16,17.16,0,0,1,6.49,7.05,22.64,22.64,0,0,1,2.29,10.58v34.18H322.61V466.5a9.88,9.88,0,0,0-2.25-7A8.13,8.13,0,0,0,314,457a8.58,8.58,0,0,0-6.51,2.58A10.07,10.07,0,0,0,305,466.74Z"/><path class="cls-1" d="M358.85,437.45a8.78,8.78,0,0,1-6.18-2.39,7.73,7.73,0,0,1,0-11.54,9.25,9.25,0,0,1,12.38,0,7.77,7.77,0,0,1,0,11.54A8.76,8.76,0,0,1,358.85,437.45Zm-8.55,59.88V443.7h17.07v53.63Z"/><path class="cls-1" d="M408.46,443.7v12.57h-9.67v24.19a4.17,4.17,0,0,0,1.13,3.33,4.8,4.8,0,0,0,3.19,1,12,12,0,0,0,2.08-.19q1.1-.19,1.66-.33l2.58,12.32q-1.22.35-3.42.85a32.09,32.09,0,0,1-5.31.68q-9,.42-14.05-3.6t-4.94-12.15V456.27h-7.09V443.7h7.09V430.85h17.07V443.7Z"/><path class="cls-1" d="M435.38,466.74v30.58H418.3v-71.5h16.51v27.72h.59a15.5,15.5,0,0,1,6-7.75A17.71,17.71,0,0,1,451.51,443q8.45,0,13.56,5.52t5.08,14.63v34.18H453.08V466.5a9.92,9.92,0,0,0-2.23-7,8.17,8.17,0,0,0-6.39-2.51,8.69,8.69,0,0,0-6.55,2.58A10,10,0,0,0,435.38,466.74Z"/><polygon class="cls-2" points="449.99 218.48 440.57 231.37 440.57 231.38 434.01 240.36 425.03 252.68 425.03 252.69 418.9 261.1 470.3 261.1 470.3 218.48 449.99 218.48"/><polygon class="cls-1" points="375.81 283 344.22 326.31 469.95 326.31 469.95 379.63 260.86 379.63 260.86 341.94 272.27 326.31 303.86 283 311.85 272.05 319.83 261.1 319.84 261.1 350.92 218.48 350.94 218.47 366.89 196.57 394.72 158.43 233.26 158.43 233.26 199.47 167.17 199.47 167.17 105.95 469.95 105.95 469.95 153.95 466.65 158.46 459 168.95 450.69 180.36 450.68 180.36 450.05 181.23 450.05 181.24 450.04 181.24 438.86 196.58 438.84 196.58 430.86 207.53 422.89 218.47 422.89 218.48 414.91 229.41 407.77 239.19 407.34 239.79 406.93 240.36 399.79 250.14 399.77 250.14 391.79 261.09 391.79 261.1 391.78 261.1 383.8 272.05 375.81 283"/><path class="cls-1" d="M233.26,280.1v2.48q0,31.37-14.67,53t-40.92,32.84q-26.25,11.18-61,11.18T55.52,368.45Q29.21,357.29,14.6,335.61T0,282.58V105.95H66.63V280q0,18.72,13.86,29.82t36.21,11.1q22.61,0,36.54-11.1t13.93-29.74Z"/><polygon class="cls-2" points="323.83 218.47 308 240.19 302.15 248.2 292.73 261.1 116.63 261.1 116.63 218.47 323.83 218.47"/><polygon class="cls-2" points="234.97 0 244.93 20.17 267.19 23.4 251.08 39.1 254.88 61.27 234.97 50.8 215.07 61.27 218.87 39.1 202.76 23.4 225.02 20.17 234.97 0"/><polygon class="cls-2" points="305.5 28.76 311.52 40.95 324.97 42.91 315.24 52.4 317.53 65.8 305.5 59.47 293.46 65.8 295.76 52.4 286.02 42.91 299.48 40.95 305.5 28.76"/><polygon class="cls-2" points="164.45 28.76 170.47 40.95 183.93 42.91 174.19 52.4 176.49 65.8 164.45 59.47 152.41 65.8 154.71 52.4 144.97 42.91 158.43 40.95 164.45 28.76"/></g></g></svg>